HIERARCHY
ROOT Hips
{
	OFFSET 0.000000 0.000000 0.000000
	CHANNELS 6 Xposition Yposition Zposition Zrotation Yrotation Xrotation 
	JOINT LHipJoint
	{
		OFFSET 0.000000 0.000000 0.000000
		CHANNELS 3 Zrotation Yrotation Xrotation
		JOINT LeftUpLeg
		{
			OFFSET 1.363060 -1.794630 0.839290
			CHANNELS 3 Zrotation Yrotation Xrotation
			JOINT LeftLeg
			{
				OFFSET 2.448110 -6.726130 0.000000
				CHANNELS 3 Zrotation Yrotation Xrotation
				JOINT LeftFoot
				{
					OFFSET 2.562200 -7.039590 0.000000
					CHANNELS 3 Zrotation Yrotation Xrotation
					JOINT LeftToeBase
					{
						OFFSET 0.157640 -0.433110 2.322550
						CHANNELS 3 Zrotation Yrotation Xrotation
						End Site
						{
							OFFSET 0.000000 0.000000 0.000000
						}
					}
				}
			}
		}
	}
	JOINT RHipJoint
	{
		OFFSET 0.000000 0.000000 0.000000
		CHANNELS 3 Zrotation Yrotation Xrotation
		JOINT RightUpLeg
		{
			OFFSET -1.305520 -1.794630 0.839290
			CHANNELS 3 Zrotation Yrotation Xrotation
			JOINT RightLeg
			{
				OFFSET -2.542530 -6.985550 0.000000
				CHANNELS 3 Zrotation Yrotation Xrotation
				JOINT RightFoot
				{
					OFFSET -2.568260 -7.056230 0.000000
					CHANNELS 3 Zrotation Yrotation Xrotation
					JOINT RightToeBase
					{
						OFFSET -0.164730 -0.452590 2.363150
						CHANNELS 3 Zrotation Yrotation Xrotation
						End Site
						{
							OFFSET 0.000000 0.000000 0.000000
						}
					}
				}
			}
		}
	}
}
MOTION
Frames: 32
Frame Time: 0.008333
0.244904 15.394859 -1.280768 -144.692935 78.069355 -120.008332 -9.912724 -2.439581 -0.942991 -18.642244 -0.188941 -70.738329 -1.332784 3.871377 54.081418 3.291226 11.416006 -20.381096 177.764300 -0.000000 -4.156800 9.464552 -3.206436 -7.843940 11.808132 -23.947177 -26.880466 1.066712 -5.310246 61.566900 0.390159 6.416598 -2.017865 0.450500 -0.000000 -85.994800
0.442375 15.339894 -1.320989 -143.616728 78.021804 -119.487795 -9.965318 -2.567904 -1.098965 -18.214585 0.177308 -70.515421 -1.118626 4.014923 56.472574 3.350709 11.807319 -21.251831 177.471600 0.000000 -5.517500 9.626486 -3.228122 -7.763356 11.016132 -23.930786 -26.345336 0.788677 -5.378585 62.808835 0.398890 6.957787 0.188508 0.749600 -0.000000 -86.726500
0.636748 15.288639 -1.359959 -142.857646 77.987462 -119.260453 -10.004728 -2.660340 -1.267061 -17.937793 0.543885 -70.202396 -0.938284 4.144837 58.725162 3.429563 12.231763 -22.326188 177.110000 -0.000001 -6.310500 9.789185 -3.223475 -7.682150 10.218861 -23.877675 -25.911480 0.509320 -5.442460 64.084394 0.374106 7.390377 2.464571 1.098700 0.000000 -86.920601
0.827648 15.241792 -1.398164 -142.423625 77.957382 -119.331488 -10.035580 -2.717799 -1.441509 -17.792201 0.898654 -69.785202 -0.791653 4.257988 60.785343 3.526183 12.685565 -23.565887 176.683900 -0.000000 -6.616100 9.945626 -3.195554 -7.603866 9.438587 -23.791939 -25.575888 0.236517 -5.501286 65.378776 0.316680 7.670865 4.729363 1.467100 -0.000000 -86.465901
1.014780 15.199823 -1.436081 -142.305894 77.924228 -119.691538 -10.062833 -2.743330 -1.616925 -17.750490 1.232496 -69.254801 -0.677173 4.352418 62.617829 3.636585 13.157708 -24.920690 176.203500 0.000000 -6.521801 10.089829 -3.148101 -7.531400 8.695913 -23.675722 -25.334498 -0.023558 -5.555666 66.682969 0.230303 7.751674 6.882743 1.809500 -0.000000 -85.268800
1.198044 15.162947 -1.474217 -142.471915 77.881385 -120.308871 -10.091753 -2.741662 -1.788427 -17.780561 1.540416 -68.609423 -0.592090 4.427443 64.205038 3.754751 13.631196 -26.332598 175.685100 0.000000 -6.110900 10.216717 -3.085472 -7.466582 8.011127 -23.527579 -25.184245 -0.267579 -5.607099 67.994295 0.120588 7.583768 8.813798 2.071701 0.000000 -83.259200
1.377321 15.131105 -1.513182 -142.873323 77.823022 -121.137174 -10.126168 -2.717918 -1.952233 -17.852840 1.819739 -67.852883 -0.532860 4.483261 65.545754 3.873481 14.085281 -27.743751 175.149500 -0.000000 -5.481000 10.323908 -3.011237 -7.410153 7.397252 -23.345290 -25.124648 -0.495215 -5.657780 69.313551 -0.006461 7.125394 10.419661 2.201600 -0.000000 -80.511400
1.552581 15.104152 -1.553554 -143.442583 77.744126 -122.110693 -10.169607 -2.677702 -2.105156 -17.938203 2.071156 -66.997286 -0.495314 4.521320 66.652383 3.985372 14.498651 -29.101690 174.620400 -0.000000 -4.741500 10.409680 -2.928986 -7.361114 6.867949 -23.121424 -25.157359 -0.708525 -5.709566 70.643570 -0.145522 6.347807 11.607147 2.159800 0.000000 -77.096900
1.723892 15.081803 -1.595668 -144.115716 77.643395 -123.166056 -10.223546 -2.625736 -2.245282 -18.015056 2.296891 -66.060849 -0.475174 4.544049 67.548355 4.084139 14.853431 -30.365365 174.120200 -0.000000 -4.010500 10.474445 -2.840879 -7.317104 6.431477 -22.847164 -25.287293 -0.910752 -5.763781 71.985846 -0.293072 5.244554 12.310134 1.931600 -0.000000 -73.193700
1.891300 15.063729 -1.639927 -144.824545 77.518859 -124.234054 -10.288400 -2.566403 -2.371368 -18.067655 2.500086 -65.067657 -0.467987 4.554394 68.264467 4.165440 15.137963 -31.507121 173.667400 0.000000 -3.393200 10.519417 -2.748664 -7.274118 6.094011 -22.510991 -25.520816 -1.104733 -5.820794 73.338062 -0.447416 3.835398 12.490762 1.532100 0.000001 -68.988199
2.054930 15.049631 -1.686325 -145.522199 77.372622 -125.265556 -10.362923 -2.502795 -2.483446 -18.088968 2.685129 -64.043974 -0.469810 4.555731 68.834306 4.227329 15.348504 -32.513019 173.273800 0.000000 -2.962200 10.546892 -2.652902 -7.227360 5.857448 -22.101627 -25.864892 -1.292078 -5.880056 74.693245 -0.608388 2.167442 12.143984 1.005000 0.000000 -64.681800
2.214908 15.039282 -1.734676 -146.177795 77.207783 -126.226303 -10.445032 -2.437079 -2.582458 -18.078687 2.857839 -63.016747 -0.477422 4.551462 69.290621 4.270084 15.488012 -33.382086 172.943900 0.000000 -2.742800 10.559439 -2.553757 -7.171586 5.720595 -21.608881 -26.325259 -1.472645 -5.940248 76.040006 -0.776393 0.310786 11.292640 0.414801 -0.000000 -60.401900
2.371387 15.032442 -1.784849 -146.771035 77.024583 -127.091890 -10.532197 -2.370641 -2.670009 -18.042842 3.024363 -62.009479 -0.488314 4.544249 69.661883 4.296065 15.566245 -34.123682 172.675200 -0.000000 -2.714300 10.559737 -2.451291 -7.101728 5.677893 -21.026553 -26.905644 -1.644371 -5.999650 77.361848 -0.951542 -1.648748 9.986765 -0.165100 0.000001 -56.231400
2.524562 15.029002 -1.836329 -147.310560 76.826315 -127.867396 -10.621197 -2.303827 -2.748491 -17.991477 3.191504 -61.041305 -0.501315 4.536390 69.969779 4.308918 15.596042 -34.755784 172.459600 -0.000001 -2.821300 10.550517 -2.344805 -7.013767 5.719275 -20.353591 -27.606280 -1.804071 -6.056248 78.638226 -1.132746 -3.618496 8.299775 -0.665400 0.000000 -52.208200
2.674669 15.028877 -1.888585 -147.814266 76.614491 -128.567602 -10.708851 -2.236351 -2.820615 -17.937146 3.366015 -60.124451 -0.516183 4.529260 70.228742 4.312828 15.591215 -35.300421 172.286000 0.000000 -2.990900 10.534277 -2.233699 -6.904806 5.831488 -19.594442 -28.424458 -1.947977 -6.108265 79.847099 -1.316748 -5.506799 6.319467 -1.032300 -0.000001 -48.310001
2.821815 15.031999 -1.941211 -148.306606 76.386072 -129.218114 -10.793012 -2.167908 -2.889743 -17.890639 3.553399 -59.259444 -0.533461 4.523125 70.445016 4.311591 15.564002 -35.780456 172.142700 0.000000 -3.148000 10.512540 -2.117413 -6.774031 5.997370 -18.758885 -29.347477 -2.072243 -6.153693 80.960587 -1.498633 -7.234166 4.156869 -1.237100 -0.000000 -44.652201
2.966388 15.038292 -1.993639 -148.819321 76.142133 -129.849565 -10.871157 -2.097682 -2.958116 -17.861764 3.757970 -58.446411 -0.554464 4.517994 70.619030 4.308505 15.523048 -36.217330 172.019500 0.000000 -3.228400 10.486775 -1.995508 -6.621925 6.200626 -17.862468 -30.367316 -2.173936 -6.191810 81.958791 -1.670033 -8.728107 1.905734 -1.274500 0.000000 -41.130000
3.108527 15.047614 -2.045565 -149.376641 75.877254 -130.490781 -10.942689 -2.025567 -3.028615 -17.854384 3.981939 -57.672832 -0.580499 4.512913 70.746163 4.305014 15.471542 -36.625657 171.910300 0.000000 -3.181900 10.457062 -1.868076 -6.450934 6.425708 -16.921347 -31.464615 -2.251009 -6.221508 82.817214 -1.822557 -9.939895 -0.323025 -1.166700 -0.000000 -37.915700
3.248438 15.059816 -2.096827 -149.996467 75.587611 -131.164515 -11.007608 -1.951596 -3.103011 -17.868319 4.225406 -56.924968 -0.612751 4.506809 70.819863 4.301231 15.407921 -37.013354 171.813100 0.000000 -2.976500 10.423090 -1.735635 -6.264568 6.659374 -15.953294 -32.621574 -2.302680 -6.242581 83.519416 -1.946996 -10.834842 -2.441835 -0.952000 -0.000000 -35.067899
3.386483 15.074702 -2.147466 -150.690032 75.269288 -131.887354 -11.066672 -1.875696 -3.182334 -17.901280 4.486192 -56.186105 -0.652281 4.498361 70.831591 4.295709 15.324974 -37.381069 171.731000 -0.000000 -2.607400 10.384189 -1.598846 -6.068267 6.888842 -14.981118 -33.821095 -2.328833 -6.255729 84.054653 -2.034924 -11.393102 -4.386599 -0.675601 0.000000 -32.611600
3.522684 15.091986 -2.197466 -151.455237 74.917989 -132.663985 -11.121774 -1.799189 -3.267375 -17.942707 4.761037 -55.441189 -0.699022 4.486707 70.777631 4.285538 15.212460 -37.720747 171.671100 0.000000 -2.070800 10.339074 -1.458981 -5.865982 7.110336 -14.014051 -35.044911 -2.330926 -6.261006 84.417741 -2.081595 -11.619721 -6.104338 -0.384200 -0.000000 -30.655800
3.657391 15.111391 -2.247174 -152.284353 74.531772 -133.491284 -11.174806 -1.722724 -3.357325 -17.984236 5.043396 -54.677840 -0.752639 4.471008 70.655012 4.267547 15.058811 -38.021823 171.642200 0.000000 -1.403300 10.286708 -1.316867 -5.663148 7.317923 -13.069420 -36.281216 -2.310409 -6.259699 84.612244 -2.084708 -11.530659 -7.579305 -0.113200 -0.000000 -29.165600
3.790710 15.132585 -2.296829 -153.160407 74.109497 -134.356454 -11.227942 -1.647753 -3.451099 -18.014131 5.326690 -53.889051 -0.811759 4.451067 70.467431 4.238335 14.853509 -38.270281 171.653901 0.000000 -0.638999 10.226055 -1.173401 -5.463152 7.511989 -12.153157 -37.521617 -2.269635 -6.252730 84.648347 -2.046382 -11.161717 -8.813471 0.113800 0.000001 -28.101600
3.922814 15.155198 -2.346732 -154.062497 73.651874 -135.240655 -11.283031 -1.575792 -3.546885 -18.022225 5.602370 -53.073458 -0.874444 4.427042 70.222989 4.195371 14.589803 -38.454160 -8.287000 0.000000 -0.168000 10.156371 -1.028975 -5.268745 7.693667 -11.269201 -38.763159 -2.211275 -6.241348 84.542817 -1.972360 -10.562699 -9.829453 0.286700 -0.000000 -27.377400
4.053864 15.178960 -2.397104 -154.972039 73.161778 -136.124895 -11.341446 -1.508210 -3.642464 -17.999803 5.862169 -52.235194 -0.938316 4.399550 69.933405 4.137040 14.265586 -38.562471 -8.176100 0.000001 -0.985800 10.077103 -0.883524 -5.081344 7.866224 -10.417908 -40.008049 -2.138211 -6.226666 84.315519 -1.871420 -9.794852 -10.661218 0.406200 0.000000 -26.897800
4.183973 15.203547 -2.448125 -155.869889 72.642746 -136.989423 -11.403893 -1.446316 -3.735753 -17.941696 6.098028 -51.381804 -1.000937 4.369377 69.613440 4.063484 13.885011 -38.592276 -8.014900 0.000000 -1.765000 9.988049 -0.736677 -4.901629 8.032408 -9.598445 -41.261581 -2.053472 -6.209975 83.988658 -1.754223 -8.926111 -11.348842 0.479700 0.000001 -26.580300
4.313263 15.228752 -2.499955 -156.740482 72.099049 -137.815976 -11.470661 -1.391074 -3.824707 -17.845257 6.303245 -50.523425 -1.059894 4.337406 69.277779 3.975819 13.456711 -38.542233 -7.808100 -0.000000 -2.514600 9.888924 -0.588079 -4.729497 8.196401 -8.809159 -42.531267 -1.959906 -6.192289 83.582361 -1.632041 -8.025599 -11.930653 0.518100 -0.000000 -26.373100
4.441983 15.254444 -2.552429 -157.582314 71.538140 -138.600378 -11.540719 -1.342407 -3.907866 -17.713623 6.473265 -49.670130 -1.113779 4.304527 68.939196 3.876879 12.993305 -38.421482 -7.565499 -0.000000 -3.208901 9.780162 -0.437080 -4.564797 8.360300 -8.051769 -43.825237 -1.860147 -6.174717 83.114085 -1.515328 -7.156610 -12.440981 0.533100 -0.000001 -26.248500
4.570083 15.280518 -2.605523 -158.383839 70.963551 -139.330186 -11.613757 -1.301140 -3.984935 -17.547152 6.607469 -48.830730 -1.160853 4.271443 68.608268 3.769103 12.509086 -38.232572 -7.295600 0.000001 -3.947901 9.661322 -0.284347 -4.406941 8.531058 -7.323288 -45.146808 -1.756372 -6.157531 82.593244 -1.413517 -6.377071 -12.899888 0.534800 0.000000 -26.234700
4.697698 15.306913 -2.659109 -159.143370 70.380596 -140.002199 -11.688550 -1.266793 -4.055758 -17.351528 6.707166 -48.011460 -1.200641 4.238444 68.289910 3.655642 12.017853 -37.984653 -7.008800 -0.000000 -4.803300 9.532506 -0.130713 -4.255583 8.713176 -6.626265 -46.498833 -1.650022 -6.141063 82.023649 -1.333483 -5.729371 -13.320121 0.532001 0.000000 -26.357000
4.825285 15.333673 -2.712990 -159.874273 69.797952 -140.627799 -11.762509 -1.236951 -4.120314 -17.139791 6.775142 -47.213868 -1.234940 4.205428 67.983152 3.541352 11.532349 -37.705869 -6.719600 0.000000 -5.682300 9.394940 0.023083 -4.111055 8.907462 -5.971354 -47.883155 -1.541921 -6.125970 81.405893 -1.278989 -5.236332 -13.708760 0.531200 0.000000 -26.609400
4.952775 15.360730 -2.767028 -160.568689 69.218750 -141.200366 -11.835141 -1.211553 -4.179602 -16.913986 6.817987 -46.439199 -1.263551 4.172126 67.684286 3.427367 11.061201 -37.392063 -6.431500 -0.000000 -6.773300 9.248174 0.174187 -3.972633 9.124093 -5.356267 -49.293166 -1.432224 -6.111317 80.729035 -1.252527 -4.913456 -14.055463 0.536499 0.000000 -27.026700
